<?xml version="1.0" standalone="no"?>
<!DOCTYPE svg PUBLIC "-//W3C//DTD SVG 20010904//EN"
 "http://www.w3.org/TR/2001/REC-SVG-20010904/DTD/svg10.dtd">
<svg version="1.0" xmlns="http://www.w3.org/2000/svg"
 width="512.000000pt" height="512.000000pt" viewBox="0 0 512.000000 512.000000"
 preserveAspectRatio="xMidYMid meet">
<metadata>
Created by potrace 1.14, written by Peter Selinger 2001-2017
</metadata>
<g transform="translate(0.000000,512.000000) scale(0.100000,-0.100000)"
fill="#000000" stroke="none">
<path d="M359 5096 c-42 -12 -99 -37 -128 -55 -103 -66 -189 -189 -217 -309
-11 -47 -14 -438 -13 -2177 0 -2308 -3 -2162 56 -2285 33 -69 140 -175 213
-213 119 -60 -29 -57 2285 -57 2306 0 2177 -3 2293 56 75 39 182 145 215 214
59 124 56 -28 54 2310 l-2 2145 -21 55 c-61 158 -179 271 -331 316 l-78 23
-2125 0 -2125 0 -76 -23z"/>
</g>
</svg>
